<svg width="18" height="18" viewBox="0 0 18 18" fill="none" xmlns="http://www.w3.org/2000/svg">
<path d="M6 12.5C6 12.7761 6.22386 13 6.5 13C6.77614 13 7 12.7761 7 12.5L6 12.5ZM7 9.5C7 9.22386 6.77614 9 6.5 9C6.22386 9 6 9.22386 6 9.5L7 9.5ZM11 12.5C11 12.7761 11.2239 13 11.5 13C11.7761 13 12 12.7761 12 12.5H11ZM12 9.5C12 9.22386 11.7761 9 11.5 9C11.2239 9 11 9.22386 11 9.5H12ZM15.3889 4.83706L15.6666 5.2528L15.3889 4.83706ZM14.8371 5.38886L15.2528 5.66664L14.8371 5.38886ZM3.16294 5.38886L2.7472 5.66664L3.16294 5.38886ZM2.61114 4.83706L2.33336 5.2528L2.61114 4.83706ZM11.0528 1.72361C11.1763 1.9706 11.4766 2.07071 11.7236 1.94721C11.9706 1.82372 12.0707 1.52338 11.9472 1.27639L11.0528 1.72361ZM6.05276 1.27668C5.92929 1.52368 6.02944 1.82401 6.27644 1.94748C6.52344 2.07095 6.82376 1.97081 6.94724 1.72381L6.05276 1.27668ZM7 12.5L7 9.5L6 9.5L6 12.5L7 12.5ZM12 12.5V9.5H11V12.5H12ZM0 5H18V4H0V5ZM10.5 17H7.5V18H10.5V17ZM4 13.5V8H3V13.5H4ZM14 8V13.5H15V8H14ZM18 4C17.3082 4 16.7517 3.9994 16.3063 4.0447C15.8526 4.09085 15.4591 4.18875 15.1111 4.42133L15.6666 5.2528C15.823 5.14831 16.0329 5.07768 16.4075 5.03957C16.7905 5.0006 17.2874 5 18 5V4ZM15 8C15 7.28736 15.0006 6.79052 15.0396 6.40753C15.0777 6.03289 15.1483 5.82302 15.2528 5.66664L14.4213 5.11107C14.1888 5.45915 14.0909 5.85262 14.0447 6.30632C13.9994 6.75167 14 7.30818 14 8H15ZM15.1111 4.42133C14.8381 4.60372 14.6037 4.8381 14.4213 5.11107L15.2528 5.66664C15.3622 5.50286 15.5029 5.36223 15.6666 5.2528L15.1111 4.42133ZM4 8C4 7.30818 4.0006 6.75167 3.9553 6.30632C3.90915 5.85262 3.81125 5.45915 3.57867 5.11107L2.7472 5.66664C2.85169 5.82302 2.92232 6.03289 2.96043 6.40753C2.9994 6.79052 3 7.28736 3 8H4ZM0 5C0.712637 5 1.20948 5.0006 1.59247 5.03957C1.96711 5.07768 2.17698 5.14831 2.33336 5.2528L2.88893 4.42133C2.54085 4.18875 2.14738 4.09085 1.69368 4.0447C1.24833 3.9994 0.691825 4 0 4V5ZM3.57867 5.11107C3.39628 4.8381 3.1619 4.60372 2.88893 4.42133L2.33336 5.2528C2.49714 5.36223 2.63777 5.50286 2.7472 5.66664L3.57867 5.11107ZM7.5 17C6.54306 17 5.87565 16.9989 5.37208 16.9312C4.8829 16.8655 4.62385 16.7452 4.43934 16.5607L3.73223 17.2678C4.13351 17.669 4.63876 17.8416 5.23883 17.9223C5.82452 18.0011 6.57133 18 7.5 18V17ZM3 13.5C3 14.4287 2.99894 15.1755 3.07768 15.7612C3.15836 16.3612 3.33096 16.8665 3.73223 17.2678L4.43934 16.5607C4.25483 16.3762 4.13453 16.1171 4.06876 15.6279C4.00106 15.1244 4 14.4569 4 13.5H3ZM10.5 18C11.4287 18 12.1755 18.0011 12.7612 17.9223C13.3612 17.8416 13.8665 17.669 14.2678 17.2678L13.5607 16.5607C13.3762 16.7452 13.1171 16.8655 12.6279 16.9312C12.1244 16.9989 11.4569 17 10.5 17V18ZM14 13.5C14 14.4569 13.9989 15.1244 13.9312 15.6279C13.8655 16.1171 13.7452 16.3762 13.5607 16.5607L14.2678 17.2678C14.669 16.8665 14.8416 16.3612 14.9223 15.7612C15.0011 15.1755 15 14.4287 15 13.5H14ZM9 1C9.91251 1 10.4386 1.22669 10.7226 1.41603C10.867 1.51223 10.9566 1.60398 11.0065 1.66384C11.0316 1.69392 11.0468 1.71625 11.054 1.72741C11.0576 1.73299 11.0592 1.73575 11.0589 1.73528C11.0587 1.73504 11.0582 1.73398 11.0571 1.73206C11.0566 1.73109 11.056 1.72991 11.0553 1.72851C11.0549 1.7278 11.0545 1.72704 11.0541 1.72623C11.0539 1.72582 11.0537 1.7254 11.0535 1.72496C11.0534 1.72474 11.0532 1.7244 11.0531 1.72429C11.053 1.72395 11.0528 1.72361 11.5 1.5C11.9472 1.27639 11.947 1.27604 11.9469 1.27568C11.9468 1.27556 11.9466 1.2752 11.9465 1.27495C11.9462 1.27445 11.946 1.27394 11.9457 1.27341C11.9452 1.27235 11.9446 1.27123 11.944 1.27004C11.9428 1.26768 11.9414 1.26506 11.9399 1.26221C11.9368 1.2565 11.9332 1.24983 11.9289 1.24226C11.9203 1.22714 11.9092 1.20842 11.8952 1.18665C11.8672 1.14312 11.8278 1.08733 11.7747 1.02366C11.6684 0.896016 11.508 0.73777 11.2774 0.583975C10.8114 0.27331 10.0875 0 9 0V1ZM6.5 1.50024C6.94724 1.72381 6.94706 1.72415 6.94689 1.72449C6.94684 1.7246 6.94667 1.72494 6.94656 1.72516C6.94634 1.7256 6.94612 1.72602 6.94591 1.72643C6.9455 1.72724 6.94511 1.728 6.94475 1.7287C6.94402 1.73011 6.9434 1.73129 6.94289 1.73225C6.94187 1.73418 6.94128 1.73523 6.94114 1.73547C6.94087 1.73595 6.94242 1.73318 6.94601 1.7276C6.95318 1.71643 6.96845 1.69409 6.99352 1.664C7.04341 1.60412 7.13309 1.51234 7.2774 1.41612C7.56139 1.22674 8.08752 1 9 1V0C7.91248 0 7.18861 0.273383 6.7226 0.584127C6.49191 0.737959 6.33159 0.896241 6.22523 1.02391C6.17217 1.08759 6.13275 1.14339 6.10477 1.18693C6.09078 1.2087 6.07964 1.22742 6.07107 1.24255C6.06678 1.25011 6.06314 1.25678 6.0601 1.26249C6.05858 1.26535 6.05721 1.26796 6.05599 1.27033C6.05538 1.27151 6.05481 1.27263 6.05427 1.27369C6.054 1.27422 6.05374 1.27474 6.05349 1.27523C6.05336 1.27548 6.05318 1.27584 6.05312 1.27597C6.05294 1.27632 6.05276 1.27668 6.5 1.50024Z" fill="#222222"/>
</svg>
