<svg width="14" height="18" viewBox="0 0 14 18" fill="none" xmlns="http://www.w3.org/2000/svg">
<path d="M2 5.5C2 5.77614 2.22386 6 2.5 6C2.77614 6 3 5.77614 3 5.5L2 5.5ZM2.5 5L2 5L2 5L2.5 5ZM11.5 5L12 5L12 5L11.5 5ZM11 5.5C11 5.77614 11.2239 6 11.5 6C11.7761 6 12 5.77614 12 5.5H11ZM7.89206 0.519261L7.94107 0.0216684L7.94107 0.0216683L7.89206 0.519261ZM11.4807 4.10793L11.9783 4.05892L11.9783 4.05892L11.4807 4.10793ZM2.51926 4.10793L3.01685 4.15694L3.01685 4.15694L2.51926 4.10793ZM6.10793 0.519261L6.15694 1.01685L6.15694 1.01685L6.10793 0.519261ZM10 10.5C10 10.7761 10.2239 11 10.5 11C10.7761 11 11 10.7761 11 10.5H10ZM11 8.5C11 8.22386 10.7761 8 10.5 8C10.2239 8 10 8.22386 10 8.5H11ZM3 10.5C3 10.7761 3.22386 11 3.5 11C3.77614 11 4 10.7761 4 10.5H3ZM4 8.5C4 8.22386 3.77614 8 3.5 8C3.22386 8 3 8.22386 3 8.5H4ZM3 5.5L3 5L2 5L2 5.5L3 5.5ZM11 5V5.5H12V5H11ZM7 1C7.47623 1 7.6781 1.00061 7.84306 1.01685L7.94107 0.0216683C7.7149 -0.000606991 7.45244 -6.15726e-08 7 2.29879e-10L7 1ZM12 5C12 4.54756 12.0006 4.28509 11.9783 4.05892L10.9831 4.15694C10.9994 4.32189 11 4.52376 11 5L12 5ZM7.84306 1.01685C9.50478 1.18052 10.8195 2.49522 10.9831 4.15694L11.9783 4.05892C11.7679 1.92243 10.0776 0.232094 7.94107 0.0216684L7.84306 1.01685ZM3 5C3 4.52376 3.00061 4.32189 3.01685 4.15694L2.02167 4.05892C1.99939 4.28509 2 4.54756 2 5L3 5ZM7 2.29879e-10C6.54756 6.20323e-08 6.28509 -0.000606826 6.05892 0.0216692L6.15694 1.01685C6.32189 1.00061 6.52376 1 7 1L7 2.29879e-10ZM3.01685 4.15694C3.18052 2.49522 4.49522 1.18052 6.15694 1.01685L6.05892 0.0216691C3.92242 0.232096 2.23209 1.92243 2.02167 4.05892L3.01685 4.15694ZM11 10.5V8.5H10V10.5H11ZM4 10.5V8.5H3V10.5H4ZM4.1 6H9.9V5H4.1V6ZM13 9.1V11.5H14V9.1H13ZM7.5 17H6.5V18H7.5V17ZM1 11.5V9.1H0V11.5H1ZM6.5 17C5.07165 17 4.05069 16.9989 3.27481 16.8946C2.51331 16.7922 2.06319 16.5987 1.73223 16.2678L1.02513 16.9749C1.57285 17.5226 2.26917 17.7684 3.14156 17.8857C3.99956 18.0011 5.09992 18 6.5 18V17ZM0 11.5C0 12.9001 -0.00106187 14.0004 0.114294 14.8584C0.231583 15.7308 0.477402 16.4272 1.02513 16.9749L1.73223 16.2678C1.40128 15.9368 1.20776 15.4867 1.10538 14.7252C1.00106 13.9493 1 12.9284 1 11.5H0ZM13 11.5C13 12.9284 12.9989 13.9493 12.8946 14.7252C12.7922 15.4867 12.5987 15.9368 12.2678 16.2678L12.9749 16.9749C13.5226 16.4272 13.7684 15.7308 13.8857 14.8584C14.0011 14.0004 14 12.9001 14 11.5H13ZM7.5 18C8.90008 18 10.0004 18.0011 10.8584 17.8857C11.7308 17.7684 12.4271 17.5226 12.9749 16.9749L12.2678 16.2678C11.9368 16.5987 11.4867 16.7922 10.7252 16.8946C9.94931 16.9989 8.92835 17 7.5 17V18ZM9.9 6C10.7627 6 11.3594 6.00106 11.8085 6.06144C12.2432 6.11989 12.464 6.22554 12.6192 6.38076L13.3263 5.67366C12.9544 5.30167 12.4873 5.14372 11.9417 5.07036C11.4105 4.99894 10.7344 5 9.9 5V6ZM14 9.1C14 8.26561 14.0011 7.58952 13.9296 7.05829C13.8563 6.51268 13.6983 6.04564 13.3263 5.67366L12.6192 6.38076C12.7745 6.53598 12.8801 6.75682 12.9386 7.19154C12.9989 7.64064 13 8.23734 13 9.1H14ZM4.1 5C3.26561 5 2.58951 4.99894 2.05829 5.07036C1.51268 5.14372 1.04564 5.30167 0.673654 5.67366L1.38076 6.38076C1.53598 6.22554 1.75681 6.11989 2.19153 6.06144C2.64064 6.00106 3.23734 6 4.1 6V5ZM1 9.1C1 8.23734 1.00106 7.64064 1.06144 7.19154C1.11989 6.75682 1.22554 6.53598 1.38076 6.38076L0.673654 5.67366C0.301666 6.04564 0.143715 6.51268 0.0703596 7.05829C-0.00106187 7.58951 0 8.26561 0 9.1H1Z" fill="#222222"/>
</svg>
