<svg width="19" height="19" viewBox="0 0 19 19" fill="none" xmlns="http://www.w3.org/2000/svg">
<path d="M1 1V0.5H0.5V1H1ZM10.6464 11.3536C10.8417 11.5488 11.1583 11.5488 11.3536 11.3536C11.5488 11.1583 11.5488 10.8417 11.3536 10.6464L10.6464 11.3536ZM17.5981 3.5L18.0311 3.25L18.0311 3.25L17.5981 3.5ZM13 1.5C12.7239 1.5 12.5 1.72386 12.5 2C12.5 2.27614 12.7239 2.5 13 2.5V1.5ZM16.5 2.40192L16.75 1.96891L16.75 1.96891L16.5 2.40192ZM17.1213 17.1213L17.4749 17.4749L17.4749 17.4749L17.1213 17.1213ZM2.5 13C2.5 12.7239 2.27614 12.5 2 12.5C1.72386 12.5 1.5 12.7239 1.5 13H2.5ZM2.40192 16.5L1.96891 16.75L1.96891 16.75L2.40192 16.5ZM3.5 17.5981L3.25 18.0311L3.25 18.0311L3.5 17.5981ZM1.5 9V1H0.5V9H1.5ZM1 1.5H9V0.5H1V1.5ZM0.646447 1.35355L10.6464 11.3536L11.3536 10.6464L1.35355 0.646447L0.646447 1.35355ZM7 18.5H12V17.5H7V18.5ZM18.5 12V7H17.5V12H18.5ZM18.5 7C18.5 6.07459 18.5005 5.3471 18.4477 4.76496C18.3943 4.17596 18.2833 3.68686 18.0311 3.25L17.1651 3.75C17.3148 4.00929 17.4047 4.33558 17.4518 4.85523C17.4995 5.38175 17.5 6.05618 17.5 7H18.5ZM13 2.5C13.9438 2.5 14.6183 2.50048 15.1448 2.5482C15.6644 2.5953 15.9907 2.68523 16.25 2.83494L16.75 1.96891C16.3131 1.71669 15.824 1.60567 15.235 1.55228C14.6529 1.49952 13.9254 1.5 13 1.5V2.5ZM18.0311 3.25C17.7239 2.71793 17.2821 2.2761 16.75 1.96891L16.25 2.83494C16.63 3.05436 16.9456 3.36995 17.1651 3.75L18.0311 3.25ZM12 18.5C13.4001 18.5 14.5004 18.5011 15.3584 18.3857C16.2308 18.2684 16.9271 18.0226 17.4749 17.4749L16.7678 16.7678C16.4368 17.0987 15.9867 17.2922 15.2252 17.3946C14.4493 17.4989 13.4283 17.5 12 17.5V18.5ZM17.5 12C17.5 13.4283 17.4989 14.4493 17.3946 15.2252C17.2922 15.9867 17.0987 16.4368 16.7678 16.7678L17.4749 17.4749C18.0226 16.9271 18.2684 16.2308 18.3857 15.3584C18.5011 14.5004 18.5 13.4001 18.5 12H17.5ZM1.5 13C1.5 13.9254 1.49952 14.6529 1.55228 15.235C1.60567 15.824 1.71669 16.3131 1.96891 16.75L2.83494 16.25C2.68523 15.9907 2.5953 15.6644 2.5482 15.1448C2.50048 14.6183 2.5 13.9438 2.5 13H1.5ZM7 17.5C6.05618 17.5 5.38175 17.4995 4.85523 17.4518C4.33558 17.4047 4.00929 17.3148 3.75 17.1651L3.25 18.0311C3.68686 18.2833 4.17596 18.3943 4.76496 18.4477C5.3471 18.5005 6.07459 18.5 7 18.5V17.5ZM1.96891 16.75C2.2761 17.2821 2.71793 17.7239 3.25 18.0311L3.75 17.1651C3.36995 16.9456 3.05436 16.63 2.83494 16.25L1.96891 16.75Z" fill="#222222"/>
</svg>
