<svg width="20" height="20" viewBox="0 0 20 20" fill="none" xmlns="http://www.w3.org/2000/svg">
<path d="M16 16.7059C15.6461 15.6427 14.8662 14.7033 13.7814 14.0332C12.6966 13.3632 11.3674 13 10 13C8.6326 13 7.30341 13.3632 6.21858 14.0332C5.13375 14.7033 4.35391 15.6427 4 16.7059M13 8C13 9.65685 11.6569 11 10 11C8.34315 11 7 9.65685 7 8C7 6.34315 8.34315 5 10 5C11.6569 5 13 6.34315 13 8ZM19 10C19 14.9706 14.9706 19 10 19C5.02944 19 1 14.9706 1 10C1 5.02944 5.02944 1 10 1C14.9706 1 19 5.02944 19 10Z" stroke="#222222" stroke-linecap="round"/>
</svg>
